<?xml version="1.0" encoding="utf-8"?>
<!-- Generator: Adobe Illustrator 16.0.0, SVG Export Plug-In . SVG Version: 6.00 Build 0)  -->
<!DOCTYPE svg PUBLIC "-//W3C//DTD SVG 1.1//EN" "http://www.w3.org/Graphics/SVG/1.1/DTD/svg11.dtd">
<svg version="1.1" xmlns="http://www.w3.org/2000/svg" xmlns:xlink="http://www.w3.org/1999/xlink" x="0px" y="0px"
	 width="63.954px" height="67.611px" viewBox="0 0 63.954 67.611" enable-background="new 0 0 63.954 67.611" xml:space="preserve">
<g id="line" display="none">
	<g display="inline">
		<linearGradient id="SVGID_1_" gradientUnits="userSpaceOnUse" x1="-164.7402" y1="248.6621" x2="-164.7402" y2="312.5879">
			<stop  offset="0" style="stop-color:#7B9BB5"/>
			<stop  offset="0.1841" style="stop-color:#84A1B8"/>
			<stop  offset="0.4844" style="stop-color:#9CB0C1"/>
			<stop  offset="0.8612" style="stop-color:#C4CACE"/>
			<stop  offset="1" style="stop-color:#D4D4D4"/>
		</linearGradient>
		<path fill="url(#SVGID_1_)" d="M-168.264,251.662c0.835,0,1.67,0.335,2.271,0.937l13.626,13.654
			c0.601,0.602,0.935,1.438,0.935,2.275c0,1.807-1.603,3.012-2.805,4.149c-0.635,0.603-1.402,0.937-2.271,0.937
			c-1.536,0-2.271-0.937-3.272-1.94c0.3,0.301,0.468,0.702,0.468,1.138c0,0.435-0.168,0.836-0.468,1.138l-4.208,4.216l8.549,8.567
			c0.902-0.903,1.938-1.439,3.207-1.439c1.135,0,2.237,0.469,3.039,1.238l12.123,12.147c0.769,0.803,1.236,1.908,1.236,3.045
			c0,1.139-0.468,2.242-1.236,3.012l-3.573,3.614c-0.802,0.771-1.903,1.238-3.039,1.238s-2.237-0.468-3.006-1.238l-12.124-12.181
			c-0.801-0.77-1.269-1.874-1.269-3.012c0-1.271,0.534-2.309,1.437-3.213l-8.55-8.566l-4.208,4.217
			c-0.301,0.301-0.702,0.469-1.136,0.469s-0.835-0.168-1.135-0.469c1.002,1.004,1.937,1.74,1.937,3.279
			c0,0.87-0.334,1.64-0.935,2.275c-1.136,1.205-2.338,2.811-4.142,2.811c-0.835,0-1.67-0.334-2.271-0.937l-13.626-13.653
			c-0.602-0.602-0.936-1.439-0.936-2.275c0-1.807,1.603-3.012,2.806-4.149c0.634-0.603,1.402-0.938,2.271-0.938
			c1.536,0,2.271,0.938,3.273,1.941c-0.301-0.302-0.468-0.703-0.468-1.138c0-0.436,0.167-0.837,0.468-1.138l11.623-11.646
			c0.3-0.301,0.701-0.469,1.135-0.469s0.835,0.168,1.136,0.469c-1.002-1.004-1.937-1.74-1.937-3.279c0-0.87,0.334-1.641,0.935-2.275
			C-171.27,253.269-170.067,251.662-168.264,251.662 M-168.264,248.662c-2.9,0-4.72,1.997-5.924,3.318
			c-0.135,0.148-0.268,0.295-0.4,0.435c-1.145,1.211-1.752,2.711-1.752,4.334c0,0.556,0.067,1.061,0.183,1.52l-10.899,10.922
			c-0.458-0.115-0.96-0.183-1.514-0.183c-1.624,0-3.124,0.609-4.337,1.763c-0.135,0.128-0.281,0.262-0.429,0.396
			c-1.318,1.205-3.31,3.027-3.31,5.928c0,1.641,0.661,3.242,1.813,4.396l13.625,13.651c1.152,1.155,2.754,1.817,4.395,1.817
			c2.901,0,4.721-1.997,5.924-3.318c0.135-0.148,0.269-0.295,0.4-0.435c1.145-1.211,1.752-2.71,1.752-4.333
			c0-0.556-0.067-1.061-0.183-1.52l1.725-1.729l4.692,4.7c-0.385,0.889-0.578,1.835-0.578,2.832c0,1.938,0.788,3.812,2.163,5.148
			l12.104,12.16c1.346,1.35,3.216,2.122,5.132,2.122c1.88,0,3.746-0.757,5.118-2.075l0.028-0.026l0.027-0.027l3.573-3.614
			c1.333-1.334,2.103-3.205,2.103-5.121c0-1.88-0.754-3.746-2.069-5.119l-0.021-0.023l-0.022-0.021l-12.123-12.147l-0.023-0.022
			l-0.023-0.023c-1.373-1.317-3.238-2.073-5.116-2.073c-0.994,0-1.938,0.192-2.824,0.577l-4.694-4.705l1.73-1.732
			c0.458,0.115,0.959,0.182,1.512,0.182c1.623,0,3.122-0.608,4.336-1.76c0.138-0.131,0.285-0.265,0.433-0.4
			c1.317-1.205,3.307-3.027,3.307-5.926c0-1.639-0.66-3.241-1.811-4.395l-13.627-13.654
			C-165.023,249.325-166.625,248.662-168.264,248.662L-168.264,248.662z"/>
	</g>
	<g display="inline">
		<linearGradient id="SVGID_2_" gradientUnits="userSpaceOnUse" x1="-146.1597" y1="172.543" x2="-146.1597" y2="221.4834">
			<stop  offset="0" style="stop-color:#7B9BB5"/>
			<stop  offset="0.1841" style="stop-color:#84A1B8"/>
			<stop  offset="0.4844" style="stop-color:#9CB0C1"/>
			<stop  offset="0.8612" style="stop-color:#C4CACE"/>
			<stop  offset="1" style="stop-color:#D4D4D4"/>
		</linearGradient>
		<path fill="url(#SVGID_2_)" d="M-146.161,175.543c0.912,0,1.825,0.292,2.521,0.878l8.095,6.826v-6.524
			c0-0.603,0.465-1.071,1.062-1.071h6.369c0.598,0,1.062,0.469,1.062,1.071v13.652l7.266,6.09c0.431,0.368,0.497,1.071,0.133,1.507
			l-2.058,2.476c-0.166,0.201-0.431,0.335-0.696,0.368c-0.033,0-0.066,0-0.1,0c-0.266,0-0.498-0.067-0.697-0.234l-22.958-19.308
			l-22.958,19.308c-0.202,0.146-0.43,0.24-0.683,0.24c-0.037,0-0.075-0.002-0.113-0.006c-0.266-0.033-0.531-0.167-0.697-0.368
			l-2.057-2.476c-0.365-0.436-0.298-1.139,0.133-1.507l23.854-20.044C-147.985,175.835-147.073,175.543-146.161,175.543
			 M-146.161,184.218l19.077,15.861c0.033,0.067,0.033,0.134,0.033,0.2v16.062c0,1.172-0.963,2.142-2.124,2.142h-12.739v-12.85
			h-8.493v12.85h-12.74c-1.161,0-2.123-0.97-2.123-2.142v-16.062c0-0.066,0.033-0.133,0.033-0.2L-146.161,184.218 M-146.161,172.543
			c-1.657,0-3.238,0.562-4.451,1.581l-23.854,20.044c-1.713,1.463-1.931,4.026-0.502,5.73l2.048,2.466
			c0.637,0.774,1.6,1.299,2.632,1.428c0.19,0.021,0.339,0.029,0.485,0.029c0.524,0,1.042-0.104,1.531-0.303v12.823
			c0,2.835,2.298,5.142,5.123,5.142h12.74h3v-3v-9.85h2.493v9.85v3h3h12.739c2.825,0,5.124-2.307,5.124-5.142v-12.816
			c0.48,0.191,1,0.29,1.545,0.29h0.1h0.187l0.186-0.023c1.03-0.129,1.991-0.652,2.638-1.436l2.051-2.468
			c1.419-1.694,1.202-4.257-0.491-5.704l-6.215-5.209v-12.253c0-2.245-1.822-4.071-4.062-4.071h-6.369
			c-2.24,0-4.062,1.826-4.062,4.071v0.07l-3.161-2.665C-142.923,173.104-144.504,172.543-146.161,172.543L-146.161,172.543z"/>
	</g>
	<g display="inline">
		<linearGradient id="SVGID_3_" gradientUnits="userSpaceOnUse" x1="-24.8003" y1="140.4707" x2="-24.8003" y2="200.0127">
			<stop  offset="0" style="stop-color:#7B9BB5"/>
			<stop  offset="0.1841" style="stop-color:#84A1B8"/>
			<stop  offset="0.4844" style="stop-color:#9CB0C1"/>
			<stop  offset="0.8612" style="stop-color:#C4CACE"/>
			<stop  offset="1" style="stop-color:#D4D4D4"/>
		</linearGradient>
		<path fill="url(#SVGID_3_)" d="M-11.976,143.471c4.342,0,8.417,3.179,9.452,7.396l3.507,14.021h0.935
			c4.142,0,7.481,3.346,7.481,7.496v12.85c0,0.603-0.468,1.07-1.068,1.07H5.124v4.283c0,3.549-2.872,6.426-6.412,6.426
			s-6.412-2.877-6.412-6.426v-4.283H-41.9v4.283c0,3.549-2.872,6.426-6.413,6.426c-3.54,0-6.412-2.877-6.412-6.426v-4.283h-3.206
			c-0.601,0-1.068-0.468-1.068-1.07v-12.85c0-4.15,3.34-7.496,7.48-7.496h0.936l3.507-14.021c1.035-4.217,5.109-7.396,9.451-7.396
			H-11.976 M-41.766,164.888h33.932l-2.973-11.947c-0.1-0.367-0.768-0.902-1.169-0.902h-25.649c-0.4,0-1.068,0.535-1.169,0.902
			L-41.766,164.888 M-1.289,180.95c2.939,0,5.344-2.409,5.344-5.354c0-2.945-2.404-5.355-5.344-5.355
			c-2.938,0-5.344,2.41-5.344,5.355C-6.632,178.541-4.227,180.95-1.289,180.95 M-48.313,180.95c2.939,0,5.344-2.409,5.344-5.354
			c0-2.945-2.404-5.355-5.344-5.355c-2.938,0-5.343,2.41-5.343,5.355C-53.656,178.541-51.251,180.95-48.313,180.95 M-11.976,140.471
			h-25.649c-5.694,0-11.01,4.161-12.365,9.681l-2.959,11.834c-5.104,0.7-9.05,5.096-9.05,10.398v12.85
			c0,2.244,1.825,4.07,4.068,4.07h0.206v1.283c0,5.197,4.222,9.426,9.412,9.426c5.19,0,9.413-4.229,9.413-9.426v-1.283h28.199v1.283
			c0,5.197,4.222,9.426,9.412,9.426s9.412-4.229,9.412-9.426v-1.283h0.207c2.243,0,4.068-1.826,4.068-4.07v-12.85
			c0-5.302-3.945-9.697-9.049-10.398l-2.963-11.848C-0.965,144.632-6.281,140.471-11.976,140.471L-11.976,140.471z M-36.225,155.038
			h22.848l1.705,6.85h-26.256L-36.225,155.038L-36.225,155.038z M-1.289,177.95c-1.292,0-2.344-1.057-2.344-2.354
			c0-1.299,1.051-2.355,2.344-2.355s2.344,1.057,2.344,2.355C1.055,176.894,0.004,177.95-1.289,177.95L-1.289,177.95z
			 M-48.313,177.95c-1.292,0-2.343-1.057-2.343-2.354c0-1.299,1.051-2.355,2.343-2.355c1.292,0,2.344,1.057,2.344,2.355
			C-45.969,176.894-47.021,177.95-48.313,177.95L-48.313,177.95z"/>
	</g>
	<g display="inline">
		<linearGradient id="SVGID_4_" gradientUnits="userSpaceOnUse" x1="31.9771" y1="210" x2="31.977" y2="277.6113">
			<stop  offset="0" style="stop-color:#7B9BB5"/>
			<stop  offset="0.1841" style="stop-color:#84A1B8"/>
			<stop  offset="0.4844" style="stop-color:#9CB0C1"/>
			<stop  offset="0.8612" style="stop-color:#C4CACE"/>
			<stop  offset="1" style="stop-color:#D4D4D4"/>
		</linearGradient>
		<path fill="url(#SVGID_4_)" d="M23.125,213c3.074,0,5.59,2.521,5.59,5.601c0,3-2.479,5.597-5.453,5.597
			c-0.184,0-0.37-0.01-0.557-0.03l1.292,10.117h14.779v4.48h-14.22l0.559,4.48h15.896c0.838,0,1.642,0.49,1.992,1.226l7.966,15.929
			l6.917-3.467l2.026,3.991l-8.944,4.481c-0.314,0.174-0.664,0.244-1.013,0.244c-0.839,0-1.642-0.49-1.992-1.225l-8.35-16.698
			h-16.49c-1.118,0-2.097-0.875-2.236-1.995l-3.354-27.271c-0.035-0.351,0.105-1.12,0.209-1.471
			C18.408,214.575,20.644,213,23.125,213 M16.242,235.509l0.594,4.586c-5.695,2.521-9.363,8.122-9.363,14.354
			c0,8.646,7.022,15.682,15.652,15.682c8.979,0,16.246-7.701,15.617-16.697l3.564,7.141c-2.69,8.332-10.446,14.038-19.181,14.038
			C12.049,274.611,3,265.545,3,254.448C3,245.976,8.311,238.415,16.242,235.509 M23.125,210c-3.868,0-7.271,2.548-8.273,6.194l0,0
			c-0.08,0.291-0.403,1.547-0.302,2.562l0.003,0.035l0.004,0.035l1.66,13.496l-1.007,0.369C6.112,236.024,0,244.769,0,254.448
			c0,12.771,10.374,23.163,23.125,23.163c9.249,0,17.475-5.466,21.165-13.829l0.982,1.963c0.855,1.766,2.69,2.904,4.685,2.904
			c0.868,0,1.675-0.196,2.401-0.584l8.899-4.459l2.697-1.352l-1.366-2.689l-2.026-3.99l-1.351-2.661l-2.667,1.337l-4.233,2.121
			l-6.613-13.224c-0.745-1.536-2.232-2.598-3.92-2.847v-1.537v-4.48v-3h-3H26.639l-0.586-4.588c3.259-1.203,5.662-4.425,5.662-8.096
			C31.714,213.858,27.861,210,23.125,210L23.125,210z M23.125,267.13c-6.977,0-12.652-5.689-12.652-12.682
			c0-4.828,2.756-9.23,7.067-11.371l0.372,3.02c0.329,2.642,2.57,4.63,5.214,4.63h12.42l0.204,2.915
			c0.244,3.488-0.955,6.838-3.376,9.434C29.97,265.652,26.599,267.13,23.125,267.13L23.125,267.13z"/>
	</g>
	<g display="inline">
		<linearGradient id="SVGID_5_" gradientUnits="userSpaceOnUse" x1="124.2324" y1="142.3252" x2="124.2324" y2="208.5254">
			<stop  offset="0" style="stop-color:#7B9BB5"/>
			<stop  offset="0.1841" style="stop-color:#84A1B8"/>
			<stop  offset="0.4844" style="stop-color:#9CB0C1"/>
			<stop  offset="0.8612" style="stop-color:#C4CACE"/>
			<stop  offset="1" style="stop-color:#D4D4D4"/>
		</linearGradient>
		<path fill="url(#SVGID_5_)" d="M124.233,145.561l31.849,12.85v4.283h-4.247c0,1.171-1.028,2.142-2.289,2.142H98.919
			c-1.261,0-2.289-0.971-2.289-2.142h-4.247v-4.283L124.233,145.561 M147.589,166.977v25.699h1.958c1.261,0,2.289,0.971,2.289,2.142
			v2.142H96.63v-2.142c0-1.171,1.028-2.142,2.289-2.142h1.958v-25.699h8.493v25.699h4.247v-25.699h8.493v25.699h4.247v-25.699h8.493
			v25.699h4.247v-25.699H147.589 M153.793,199.101c1.261,0,2.289,0.971,2.289,2.142v4.283H92.383v-4.283
			c0-1.171,1.028-2.142,2.289-2.142H153.793 M124.233,142.325l-1.123,0.453l-31.85,12.85l-1.877,0.758v2.024v4.283v3h3h2.243
			c0.767,1.034,1.919,1.782,3.25,2.042v22.041c-2.419,0.472-4.247,2.553-4.247,5.041v1.383c-2.419,0.473-4.247,2.554-4.247,5.042
			v4.283v3h3h63.699h3v-3v-4.283c0-2.488-1.828-4.569-4.247-5.042v-1.383c0-2.488-1.828-4.569-4.247-5.041v-22.041
			c1.332-0.26,2.484-1.008,3.25-2.042h2.243h3v-3v-4.283v-2.024l-1.877-0.758l-31.849-12.85L124.233,142.325L124.233,142.325z"/>
	</g>
	<g display="inline">
		<linearGradient id="SVGID_6_" gradientUnits="userSpaceOnUse" x1="141.2637" y1="242.2334" x2="141.2637" y2="299.6338">
			<stop  offset="0" style="stop-color:#7B9BB5"/>
			<stop  offset="0.1841" style="stop-color:#84A1B8"/>
			<stop  offset="0.4844" style="stop-color:#9CB0C1"/>
			<stop  offset="0.8612" style="stop-color:#C4CACE"/>
			<stop  offset="1" style="stop-color:#D4D4D4"/>
		</linearGradient>
		<path fill="url(#SVGID_6_)" d="M141.263,245.233c0.101,0,0.201,0,0.334,0.033l37.406,11.779c0.434,0.167,0.734,0.568,0.734,1.037
			s-0.301,0.87-0.734,1.037l-37.406,11.779c-0.133,0.033-0.233,0.033-0.334,0.033c-0.1,0-0.2,0-0.334-0.033l-21.775-6.894
			c-1.903,1.506-3.239,5.188-3.507,9.705c1.27,0.735,2.104,2.075,2.104,3.647c0,1.506-0.769,2.811-1.938,3.58l1.938,14.49
			c0.033,0.301-0.066,0.603-0.268,0.836c-0.2,0.234-0.501,0.369-0.801,0.369h-6.413c-0.3,0-0.601-0.135-0.801-0.369
			c-0.201-0.233-0.301-0.535-0.268-0.836l1.938-14.49c-1.169-0.77-1.938-2.074-1.938-3.58c0-1.606,0.901-2.979,2.171-3.715
			c0.2-3.915,1.202-8.132,3.272-11.043l-11.121-3.48c-0.435-0.167-0.734-0.568-0.734-1.037s0.3-0.87,0.734-1.037l37.405-11.779
			C141.063,245.233,141.164,245.233,141.263,245.233 M162.037,268.925l0.602,10.575c0.268,4.718-9.585,8.567-21.375,8.567
			c-11.789,0-21.642-3.85-21.374-8.567l0.601-10.575l19.171,6.058c0.534,0.167,1.068,0.234,1.603,0.234
			c0.535,0,1.069-0.067,1.604-0.234L162.037,268.925 M141.263,242.233c-0.186,0-0.572,0-1.067,0.124l-0.085,0.021l-0.083,0.026
			l-37.405,11.779l-0.089,0.027l-0.086,0.033c-1.615,0.621-2.658,2.127-2.658,3.838s1.043,3.217,2.658,3.838l0.089,0.033
			l0.091,0.029l7.661,2.397c-1.125,2.739-1.607,5.583-1.81,7.708c-1.433,1.365-2.277,3.269-2.277,5.27
			c0,1.764,0.635,3.436,1.756,4.74l-1.729,12.933l-0.004,0.034l-0.004,0.035c-0.124,1.119,0.232,2.257,0.975,3.121
			c0.764,0.895,1.887,1.412,3.075,1.412h6.413c1.188,0,2.311-0.518,3.082-1.42c0.736-0.856,1.092-1.994,0.968-3.113l-0.004-0.035
			l-0.004-0.034l-1.342-10.036c3.885,3.701,12.374,6.072,21.88,6.072c9.818,0,18.551-2.528,22.248-6.441
			c1.889-1.998,2.197-3.982,2.122-5.296l-0.602-10.575l-0.117-2.053l14.989-4.721l0.09-0.027l0.087-0.035
			c1.614-0.621,2.656-2.127,2.656-3.836s-1.042-3.215-2.656-3.837l-0.087-0.034l-0.09-0.027l-37.406-11.779l-0.081-0.025
			l-0.083-0.021C141.839,242.233,141.45,242.233,141.263,242.233L141.263,242.233z"/>
	</g>
</g>
<g id="expanded">
	<linearGradient id="SVGID_7_" gradientUnits="userSpaceOnUse" x1="-164.7402" y1="38.6621" x2="-164.7402" y2="102.5879">
		<stop  offset="0" style="stop-color:#7B9BB5"/>
		<stop  offset="0.1841" style="stop-color:#84A1B8"/>
		<stop  offset="0.4844" style="stop-color:#9CB0C1"/>
		<stop  offset="0.8612" style="stop-color:#C4CACE"/>
		<stop  offset="1" style="stop-color:#D4D4D4"/>
	</linearGradient>
	<path fill="url(#SVGID_7_)" d="M-168.264,41.662c0.835,0,1.67,0.335,2.271,0.937l13.626,13.653
		c0.601,0.602,0.935,1.439,0.935,2.276c0,1.807-1.603,3.011-2.805,4.149c-0.635,0.602-1.402,0.937-2.271,0.937
		c-1.536,0-2.271-0.937-3.272-1.94c0.3,0.301,0.468,0.703,0.468,1.138c0,0.435-0.168,0.836-0.468,1.138l-4.208,4.216l8.549,8.567
		c0.902-0.903,1.938-1.439,3.207-1.439c1.135,0,2.237,0.469,3.039,1.238l12.123,12.147c0.769,0.803,1.236,1.908,1.236,3.045
		c0,1.139-0.468,2.242-1.236,3.012l-3.573,3.614c-0.802,0.771-1.903,1.238-3.039,1.238s-2.237-0.468-3.006-1.238l-12.124-12.181
		c-0.801-0.77-1.269-1.874-1.269-3.012c0-1.271,0.534-2.309,1.437-3.213l-8.55-8.566l-4.208,4.217
		c-0.301,0.301-0.702,0.469-1.136,0.469s-0.835-0.168-1.135-0.469c1.002,1.004,1.937,1.74,1.937,3.279
		c0,0.87-0.334,1.64-0.935,2.275c-1.136,1.205-2.338,2.811-4.142,2.811c-0.835,0-1.67-0.334-2.271-0.937L-192.71,69.37
		c-0.602-0.602-0.936-1.439-0.936-2.275c0-1.807,1.603-3.012,2.806-4.149c0.634-0.603,1.402-0.938,2.271-0.938
		c1.536,0,2.271,0.938,3.273,1.941c-0.301-0.301-0.468-0.703-0.468-1.138c0-0.435,0.167-0.837,0.468-1.138l11.623-11.646
		c0.3-0.301,0.701-0.469,1.135-0.469s0.835,0.167,1.136,0.469c-1.002-1.004-1.937-1.74-1.937-3.279c0-0.87,0.334-1.64,0.935-2.276
		C-171.27,43.269-170.067,41.662-168.264,41.662 M-168.264,38.662c-2.9,0-4.72,1.997-5.924,3.318
		c-0.135,0.148-0.268,0.295-0.4,0.435c-1.145,1.211-1.752,2.711-1.752,4.333c0,0.556,0.067,1.061,0.183,1.52l-10.899,10.921
		c-0.458-0.115-0.96-0.182-1.514-0.182c-1.624,0-3.124,0.609-4.337,1.763c-0.135,0.128-0.281,0.261-0.429,0.396
		c-1.318,1.206-3.31,3.027-3.31,5.928c0,1.64,0.661,3.243,1.813,4.396l13.625,13.652c1.152,1.155,2.754,1.817,4.395,1.817
		c2.901,0,4.721-1.997,5.924-3.318c0.135-0.148,0.269-0.294,0.4-0.435c1.145-1.211,1.752-2.71,1.752-4.333
		c0-0.556-0.067-1.061-0.183-1.52l1.725-1.729l4.692,4.7c-0.385,0.889-0.578,1.835-0.578,2.832c0,1.938,0.788,3.812,2.163,5.148
		l12.104,12.16c1.346,1.35,3.216,2.122,5.132,2.122c1.88,0,3.746-0.756,5.118-2.075l0.028-0.026l0.027-0.027l3.573-3.614
		c1.333-1.334,2.103-3.205,2.103-5.121c0-1.88-0.754-3.746-2.069-5.12l-0.021-0.022l-0.022-0.022l-12.123-12.147l-0.023-0.023
		l-0.023-0.022c-1.373-1.318-3.238-2.074-5.116-2.074c-0.994,0-1.938,0.193-2.824,0.577l-4.694-4.704l1.73-1.733
		c0.458,0.115,0.959,0.182,1.512,0.182c1.623,0,3.122-0.608,4.336-1.76c0.138-0.131,0.285-0.265,0.433-0.4
		c1.317-1.205,3.307-3.027,3.307-5.926c0-1.639-0.66-3.241-1.811-4.395l-13.627-13.654
		C-165.023,39.325-166.625,38.662-168.264,38.662L-168.264,38.662z"/>
	<linearGradient id="SVGID_8_" gradientUnits="userSpaceOnUse" x1="-146.1597" y1="-37.457" x2="-146.1597" y2="11.4834">
		<stop  offset="0" style="stop-color:#7B9BB5"/>
		<stop  offset="0.1841" style="stop-color:#84A1B8"/>
		<stop  offset="0.4844" style="stop-color:#9CB0C1"/>
		<stop  offset="0.8612" style="stop-color:#C4CACE"/>
		<stop  offset="1" style="stop-color:#D4D4D4"/>
	</linearGradient>
	<path fill="url(#SVGID_8_)" d="M-146.161-34.457c0.912,0,1.825,0.292,2.521,0.878l8.095,6.827v-6.525
		c0-0.603,0.465-1.071,1.062-1.071h6.369c0.598,0,1.062,0.469,1.062,1.071v13.652l7.266,6.09c0.431,0.368,0.497,1.071,0.133,1.506
		l-2.058,2.476c-0.166,0.201-0.431,0.335-0.696,0.368c-0.033,0-0.066,0-0.1,0c-0.266,0-0.498-0.067-0.697-0.234l-22.958-19.308
		l-22.958,19.308c-0.202,0.146-0.43,0.241-0.683,0.241c-0.037,0-0.075-0.002-0.113-0.006c-0.266-0.033-0.531-0.167-0.697-0.368
		l-2.057-2.476c-0.365-0.435-0.298-1.138,0.133-1.506l23.854-20.044C-147.985-34.165-147.073-34.457-146.161-34.457
		 M-146.161-25.782l19.077,15.861c0.033,0.067,0.033,0.134,0.033,0.2V6.342c0,1.172-0.963,2.142-2.124,2.142h-12.739v-12.85h-8.493
		v12.85h-12.74c-1.161,0-2.123-0.97-2.123-2.142V-9.721c0-0.066,0.033-0.133,0.033-0.2L-146.161-25.782 M-146.161-37.457
		c-1.657,0-3.238,0.562-4.451,1.582l-23.854,20.043c-1.713,1.463-1.931,4.027-0.502,5.73l2.048,2.466
		c0.637,0.774,1.6,1.299,2.632,1.428c0.19,0.021,0.339,0.029,0.485,0.029c0.524,0,1.042-0.104,1.531-0.303V6.342
		c0,2.835,2.298,5.142,5.123,5.142h12.74h3v-3v-9.85h2.493v9.85v3h3h12.739c2.825,0,5.124-2.307,5.124-5.142V-6.475
		c0.48,0.191,1,0.29,1.545,0.29h0.1h0.187l0.186-0.023c1.03-0.129,1.991-0.652,2.638-1.436l2.051-2.468
		c1.419-1.695,1.202-4.257-0.491-5.704l-6.215-5.209v-12.252c0-2.245-1.822-4.071-4.062-4.071h-6.369
		c-2.24,0-4.062,1.826-4.062,4.071v0.07l-3.161-2.666C-142.923-36.896-144.504-37.457-146.161-37.457L-146.161-37.457z"/>
	<linearGradient id="SVGID_9_" gradientUnits="userSpaceOnUse" x1="-24.8003" y1="-69.5293" x2="-24.8003" y2="-9.9868">
		<stop  offset="0" style="stop-color:#7B9BB5"/>
		<stop  offset="0.1841" style="stop-color:#84A1B8"/>
		<stop  offset="0.4844" style="stop-color:#9CB0C1"/>
		<stop  offset="0.8612" style="stop-color:#C4CACE"/>
		<stop  offset="1" style="stop-color:#D4D4D4"/>
	</linearGradient>
	<path fill="url(#SVGID_9_)" d="M-11.976-66.529c4.342,0,8.417,3.179,9.452,7.396l3.507,14.021h0.935
		c4.142,0,7.481,3.347,7.481,7.496v12.851c0,0.602-0.468,1.07-1.068,1.07H5.124v4.283c0,3.548-2.872,6.426-6.412,6.426
		s-6.412-2.878-6.412-6.426v-4.283H-41.9v4.283c0,3.548-2.872,6.426-6.413,6.426c-3.54,0-6.412-2.878-6.412-6.426v-4.283h-3.206
		c-0.601,0-1.068-0.468-1.068-1.07v-12.851c0-4.149,3.34-7.496,7.48-7.496h0.936l3.507-14.021c1.035-4.216,5.109-7.396,9.451-7.396
		H-11.976 M-41.766-45.113h33.932l-2.973-11.946c-0.1-0.368-0.768-0.903-1.169-0.903h-25.649c-0.4,0-1.068,0.535-1.169,0.903
		L-41.766-45.113 M-1.289-29.05c2.939,0,5.344-2.409,5.344-5.354c0-2.945-2.404-5.354-5.344-5.354c-2.938,0-5.344,2.409-5.344,5.354
		C-6.632-31.459-4.227-29.05-1.289-29.05 M-48.313-29.05c2.939,0,5.344-2.409,5.344-5.354c0-2.945-2.404-5.354-5.344-5.354
		c-2.938,0-5.343,2.409-5.343,5.354C-53.656-31.459-51.251-29.05-48.313-29.05 M-11.976-69.529h-25.649
		c-5.694,0-11.01,4.162-12.365,9.68l-2.959,11.834C-58.054-47.314-62-42.918-62-37.617v12.851c0,2.244,1.825,4.07,4.068,4.07h0.206
		v1.283c0,5.197,4.222,9.426,9.412,9.426c5.19,0,9.413-4.229,9.413-9.426v-1.283h28.199v1.283c0,5.197,4.222,9.426,9.412,9.426
		s9.412-4.229,9.412-9.426v-1.283h0.207c2.243,0,4.068-1.826,4.068-4.07v-12.851c0-5.301-3.945-9.697-9.049-10.398L0.386-59.862
		C-0.965-65.368-6.281-69.529-11.976-69.529L-11.976-69.529z M-36.225-54.962h22.848l1.705,6.85h-26.256L-36.225-54.962
		L-36.225-54.962z M-1.289-32.05c-1.292,0-2.344-1.056-2.344-2.354c0-1.298,1.051-2.354,2.344-2.354s2.344,1.056,2.344,2.354
		C1.055-33.106,0.004-32.05-1.289-32.05L-1.289-32.05z M-48.313-32.05c-1.292,0-2.343-1.056-2.343-2.354
		c0-1.298,1.051-2.354,2.343-2.354c1.292,0,2.344,1.056,2.344,2.354C-45.969-33.106-47.021-32.05-48.313-32.05L-48.313-32.05z"/>
	<linearGradient id="SVGID_10_" gradientUnits="userSpaceOnUse" x1="31.9771" y1="0" x2="31.977" y2="67.6113">
		<stop  offset="0" style="stop-color:#7B9BB5"/>
		<stop  offset="0.1841" style="stop-color:#84A1B8"/>
		<stop  offset="0.4844" style="stop-color:#9CB0C1"/>
		<stop  offset="0.8612" style="stop-color:#C4CACE"/>
		<stop  offset="1" style="stop-color:#D4D4D4"/>
	</linearGradient>
	<path fill="url(#SVGID_10_)" d="M23.125,3c3.074,0,5.59,2.521,5.59,5.601c0,3-2.479,5.597-5.453,5.597
		c-0.184,0-0.37-0.01-0.557-0.03l1.292,10.117h14.779v4.481h-14.22l0.559,4.481h15.896c0.838,0,1.642,0.49,1.992,1.225l7.966,15.928
		l6.917-3.466l2.026,3.991l-8.944,4.481c-0.314,0.175-0.664,0.245-1.013,0.245c-0.839,0-1.642-0.49-1.992-1.225l-8.35-16.698h-16.49
		c-1.118,0-2.097-0.875-2.236-1.996l-3.354-27.27c-0.035-0.35,0.105-1.12,0.209-1.471C18.408,4.575,20.644,3,23.125,3
		 M16.242,25.509l0.594,4.586c-5.695,2.521-9.363,8.122-9.363,14.353c0,8.646,7.022,15.683,15.652,15.683
		c8.979,0,16.246-7.701,15.617-16.698l3.564,7.141c-2.69,8.332-10.446,14.038-19.181,14.038C12.049,64.611,3,55.545,3,44.448
		C3,35.976,8.311,28.415,16.242,25.509 M23.125,0c-3.868,0-7.271,2.547-8.273,6.195l0,0c-0.08,0.29-0.403,1.546-0.302,2.562
		l0.003,0.035l0.004,0.035l1.66,13.496l-1.007,0.369C6.112,26.025,0,34.768,0,44.448C0,57.22,10.374,67.611,23.125,67.611
		c9.249,0,17.475-5.466,21.165-13.829l0.982,1.963c0.855,1.766,2.69,2.904,4.685,2.904c0.868,0,1.675-0.197,2.401-0.585l8.899-4.459
		l2.697-1.351l-1.366-2.689l-2.026-3.991l-1.351-2.661l-2.667,1.337l-4.233,2.121l-6.613-13.224
		c-0.745-1.537-2.232-2.598-3.92-2.847v-1.537v-4.481v-3h-3H26.639l-0.586-4.588c3.259-1.202,5.662-4.424,5.662-8.095
		C31.714,3.858,27.861,0,23.125,0L23.125,0z M23.125,57.13c-6.977,0-12.652-5.689-12.652-12.683c0-4.827,2.756-9.23,7.067-11.37
		l0.372,3.02c0.329,2.641,2.57,4.629,5.214,4.629h12.42l0.204,2.915c0.244,3.488-0.955,6.838-3.376,9.434
		C29.97,55.652,26.599,57.13,23.125,57.13L23.125,57.13z"/>
	<linearGradient id="SVGID_11_" gradientUnits="userSpaceOnUse" x1="124.2324" y1="-67.6743" x2="124.2324" y2="-1.4746">
		<stop  offset="0" style="stop-color:#7B9BB5"/>
		<stop  offset="0.1841" style="stop-color:#84A1B8"/>
		<stop  offset="0.4844" style="stop-color:#9CB0C1"/>
		<stop  offset="0.8612" style="stop-color:#C4CACE"/>
		<stop  offset="1" style="stop-color:#D4D4D4"/>
	</linearGradient>
	<path fill="url(#SVGID_11_)" d="M124.233-64.439l31.849,12.85v4.283h-4.247c0,1.171-1.028,2.142-2.289,2.142H98.919
		c-1.261,0-2.289-0.97-2.289-2.142h-4.247v-4.283L124.233-64.439 M147.589-43.023v25.699h1.958c1.261,0,2.289,0.971,2.289,2.142
		v2.142H96.63v-2.142c0-1.171,1.028-2.142,2.289-2.142h1.958v-25.699h8.493v25.699h4.247v-25.699h8.493v25.699h4.247v-25.699h8.493
		v25.699h4.247v-25.699H147.589 M153.793-10.899c1.261,0,2.289,0.971,2.289,2.142v4.283H92.383v-4.283
		c0-1.171,1.028-2.142,2.289-2.142H153.793 M124.233-67.674l-1.123,0.453l-31.85,12.85l-1.877,0.758v2.024v4.283v3h3h2.243
		c0.767,1.034,1.919,1.782,3.25,2.042v22.041c-2.419,0.472-4.247,2.553-4.247,5.042v1.383c-2.419,0.472-4.247,2.553-4.247,5.042
		v4.283v3h3h63.699h3v-3v-4.283c0-2.488-1.828-4.569-4.247-5.042v-1.383c0-2.488-1.828-4.569-4.247-5.042v-22.041
		c1.332-0.26,2.484-1.007,3.25-2.042h2.243h3v-3v-4.283v-2.024l-1.877-0.758l-31.849-12.85L124.233-67.674L124.233-67.674z"/>
	<linearGradient id="SVGID_12_" gradientUnits="userSpaceOnUse" x1="141.2637" y1="32.2329" x2="141.2637" y2="89.6333">
		<stop  offset="0" style="stop-color:#7B9BB5"/>
		<stop  offset="0.1841" style="stop-color:#84A1B8"/>
		<stop  offset="0.4844" style="stop-color:#9CB0C1"/>
		<stop  offset="0.8612" style="stop-color:#C4CACE"/>
		<stop  offset="1" style="stop-color:#D4D4D4"/>
	</linearGradient>
	<path fill="url(#SVGID_12_)" d="M141.263,35.233c0.101,0,0.201,0,0.334,0.034l37.406,11.779c0.434,0.167,0.734,0.568,0.734,1.037
		s-0.301,0.87-0.734,1.037l-37.406,11.779c-0.133,0.034-0.233,0.034-0.334,0.034c-0.1,0-0.2,0-0.334-0.034l-21.775-6.894
		c-1.903,1.506-3.239,5.188-3.507,9.705c1.27,0.736,2.104,2.075,2.104,3.647c0,1.505-0.769,2.811-1.938,3.58l1.938,14.49
		c0.033,0.301-0.066,0.603-0.268,0.836c-0.2,0.234-0.501,0.368-0.801,0.368h-6.413c-0.3,0-0.601-0.134-0.801-0.368
		c-0.201-0.234-0.301-0.535-0.268-0.836l1.938-14.49c-1.169-0.77-1.938-2.075-1.938-3.58c0-1.606,0.901-2.979,2.171-3.715
		c0.2-3.915,1.202-8.132,3.272-11.043l-11.121-3.48c-0.435-0.167-0.734-0.568-0.734-1.037s0.3-0.87,0.734-1.037l37.405-11.779
		C141.063,35.233,141.164,35.233,141.263,35.233 M162.037,58.925l0.602,10.575c0.268,4.718-9.585,8.567-21.375,8.567
		c-11.789,0-21.642-3.849-21.374-8.567l0.601-10.575l19.171,6.057c0.534,0.167,1.068,0.234,1.603,0.234
		c0.535,0,1.069-0.067,1.604-0.234L162.037,58.925 M141.263,32.233c-0.186,0-0.572,0-1.067,0.125l-0.085,0.021l-0.083,0.026
		l-37.405,11.779l-0.089,0.028l-0.086,0.033c-1.615,0.621-2.658,2.127-2.658,3.837s1.043,3.217,2.658,3.837l0.089,0.034l0.091,0.029
		l7.661,2.397c-1.125,2.74-1.607,5.583-1.81,7.708c-1.433,1.365-2.277,3.268-2.277,5.269c0,1.764,0.635,3.436,1.756,4.74
		l-1.729,12.933l-0.004,0.034L106.22,85.1c-0.124,1.12,0.232,2.257,0.975,3.121c0.764,0.895,1.887,1.412,3.075,1.412h6.413
		c1.188,0,2.311-0.518,3.082-1.419c0.736-0.856,1.092-1.994,0.968-3.114l-0.004-0.035l-0.004-0.034l-1.342-10.037
		c3.885,3.702,12.374,6.072,21.88,6.072c9.818,0,18.551-2.528,22.248-6.44c1.889-1.999,2.197-3.983,2.122-5.296l-0.602-10.575
		l-0.117-2.053l14.989-4.72l0.09-0.028l0.087-0.034c1.614-0.621,2.656-2.127,2.656-3.836c0-1.709-1.042-3.215-2.656-3.837
		l-0.087-0.034l-0.09-0.028l-37.406-11.779l-0.081-0.026l-0.083-0.021C141.839,32.233,141.45,32.233,141.263,32.233L141.263,32.233z
		"/>
</g>
</svg>
